<mxfile host="app.diagrams.net" modified="2023-03-22T18:41:45.298Z" agent="5.0 (Windows NT 10.0; Win64; x64) AppleWebKit/537.36 (KHTML, like Gecko) Chrome/111.0.0.0 Safari/537.36" etag="meJ_AdOl3EPfeTh7i8aN" version="21.0.10" type="github">
  <diagram name="Страница 1" id="9Xc5u7ofYKPuOsVl6prk">
    <mxGraphModel dx="2000" dy="603" grid="1" gridSize="10" guides="1" tooltips="1" connect="1" arrows="1" fold="1" page="1" pageScale="1" pageWidth="827" pageHeight="1169" math="0" shadow="0">
      <root>
        <mxCell id="0" />
        <mxCell id="1" parent="0" />
        <mxCell id="BQe-CCMixdXJj6wNmX5B-1" value="ioc.core.ts" style="swimlane;whiteSpace=wrap;html=1;rounded=1;dashed=1;fillColor=#dae8fc;strokeColor=#6c8ebf;" vertex="1" parent="1">
          <mxGeometry x="-20" y="130" width="120" height="670" as="geometry" />
        </mxCell>
        <mxCell id="BQe-CCMixdXJj6wNmX5B-2" style="edgeStyle=orthogonalEdgeStyle;rounded=0;orthogonalLoop=1;jettySize=auto;html=1;" edge="1" parent="1" source="BQe-CCMixdXJj6wNmX5B-4">
          <mxGeometry relative="1" as="geometry">
            <mxPoint x="99.99999999999977" y="210" as="targetPoint" />
          </mxGeometry>
        </mxCell>
        <mxCell id="BQe-CCMixdXJj6wNmX5B-3" value="bind&lt;br&gt;Symbol(&#39;CloudStorageFactory&#39;)" style="edgeLabel;html=1;align=center;verticalAlign=middle;resizable=0;points=[];labelBackgroundColor=#CDA2BE;" vertex="1" connectable="0" parent="BQe-CCMixdXJj6wNmX5B-2">
          <mxGeometry x="-0.0658" relative="1" as="geometry">
            <mxPoint as="offset" />
          </mxGeometry>
        </mxCell>
        <mxCell id="BQe-CCMixdXJj6wNmX5B-4" value="cloud-storage.factory.ts" style="rounded=1;whiteSpace=wrap;html=1;fillColor=#d5e8d4;strokeColor=#82b366;" vertex="1" parent="1">
          <mxGeometry x="330" y="190" width="180" height="40" as="geometry" />
        </mxCell>
        <mxCell id="BQe-CCMixdXJj6wNmX5B-5" style="edgeStyle=orthogonalEdgeStyle;rounded=0;orthogonalLoop=1;jettySize=auto;html=1;exitX=0;exitY=0.5;exitDx=0;exitDy=0;" edge="1" parent="1" source="BQe-CCMixdXJj6wNmX5B-6">
          <mxGeometry relative="1" as="geometry">
            <mxPoint x="99.99999999999977" y="309.7142857142858" as="targetPoint" />
          </mxGeometry>
        </mxCell>
        <mxCell id="BQe-CCMixdXJj6wNmX5B-6" value="database.factory.ts" style="rounded=1;whiteSpace=wrap;html=1;fillColor=#d5e8d4;strokeColor=#82b366;" vertex="1" parent="1">
          <mxGeometry x="330" y="290" width="180" height="40" as="geometry" />
        </mxCell>
        <mxCell id="BQe-CCMixdXJj6wNmX5B-7" style="edgeStyle=orthogonalEdgeStyle;rounded=0;orthogonalLoop=1;jettySize=auto;html=1;" edge="1" parent="1" source="BQe-CCMixdXJj6wNmX5B-9">
          <mxGeometry relative="1" as="geometry">
            <mxPoint x="99.99999999999977" y="400" as="targetPoint" />
            <Array as="points">
              <mxPoint x="220" y="400" />
              <mxPoint x="220" y="400" />
            </Array>
          </mxGeometry>
        </mxCell>
        <mxCell id="BQe-CCMixdXJj6wNmX5B-8" value="bind&lt;br&gt;Symbol(&#39;FrameworkFactory&#39;)" style="edgeLabel;html=1;align=center;verticalAlign=middle;resizable=0;points=[];labelBackgroundColor=#CDA2BE;" vertex="1" connectable="0" parent="BQe-CCMixdXJj6wNmX5B-7">
          <mxGeometry x="0.0832" y="-2" relative="1" as="geometry">
            <mxPoint x="14" as="offset" />
          </mxGeometry>
        </mxCell>
        <mxCell id="BQe-CCMixdXJj6wNmX5B-9" value="framework.factory.ts" style="rounded=1;whiteSpace=wrap;html=1;fillColor=#d5e8d4;strokeColor=#82b366;" vertex="1" parent="1">
          <mxGeometry x="330" y="380" width="180" height="40" as="geometry" />
        </mxCell>
        <mxCell id="BQe-CCMixdXJj6wNmX5B-10" value="bind&lt;br&gt;Symbol(&#39;DatabaseFactory&#39;)" style="edgeLabel;html=1;align=center;verticalAlign=middle;resizable=0;points=[];labelBackgroundColor=#CDA2BE;" vertex="1" connectable="0" parent="1">
          <mxGeometry x="219.99714285714265" y="230" as="geometry">
            <mxPoint x="3" y="82" as="offset" />
          </mxGeometry>
        </mxCell>
        <mxCell id="BQe-CCMixdXJj6wNmX5B-11" style="edgeStyle=orthogonalEdgeStyle;rounded=1;orthogonalLoop=1;jettySize=auto;html=1;entryX=1;entryY=0.5;entryDx=0;entryDy=0;fillColor=#d5e8d4;strokeColor=#82b366;" edge="1" parent="1" source="BQe-CCMixdXJj6wNmX5B-15" target="BQe-CCMixdXJj6wNmX5B-4">
          <mxGeometry relative="1" as="geometry">
            <Array as="points">
              <mxPoint x="550" y="310" />
              <mxPoint x="550" y="210" />
            </Array>
          </mxGeometry>
        </mxCell>
        <mxCell id="BQe-CCMixdXJj6wNmX5B-12" style="edgeStyle=orthogonalEdgeStyle;rounded=1;orthogonalLoop=1;jettySize=auto;html=1;entryX=1;entryY=0.5;entryDx=0;entryDy=0;fillColor=#d5e8d4;strokeColor=#82b366;" edge="1" parent="1" source="BQe-CCMixdXJj6wNmX5B-15" target="BQe-CCMixdXJj6wNmX5B-6">
          <mxGeometry relative="1" as="geometry" />
        </mxCell>
        <mxCell id="BQe-CCMixdXJj6wNmX5B-13" style="edgeStyle=orthogonalEdgeStyle;rounded=1;orthogonalLoop=1;jettySize=auto;html=1;entryX=1;entryY=0.5;entryDx=0;entryDy=0;fillColor=#d5e8d4;strokeColor=#82b366;" edge="1" parent="1" source="BQe-CCMixdXJj6wNmX5B-15" target="BQe-CCMixdXJj6wNmX5B-9">
          <mxGeometry relative="1" as="geometry">
            <Array as="points">
              <mxPoint x="550" y="310" />
              <mxPoint x="550" y="400" />
            </Array>
          </mxGeometry>
        </mxCell>
        <mxCell id="BQe-CCMixdXJj6wNmX5B-29" style="edgeStyle=orthogonalEdgeStyle;rounded=1;orthogonalLoop=1;jettySize=auto;html=1;entryX=1;entryY=0.5;entryDx=0;entryDy=0;fillColor=#d5e8d4;strokeColor=#82b366;" edge="1" parent="1" source="BQe-CCMixdXJj6wNmX5B-15" target="BQe-CCMixdXJj6wNmX5B-27">
          <mxGeometry relative="1" as="geometry">
            <Array as="points">
              <mxPoint x="550" y="310" />
              <mxPoint x="550" y="584" />
            </Array>
          </mxGeometry>
        </mxCell>
        <mxCell id="BQe-CCMixdXJj6wNmX5B-30" style="edgeStyle=orthogonalEdgeStyle;rounded=1;orthogonalLoop=1;jettySize=auto;html=1;entryX=1;entryY=0.5;entryDx=0;entryDy=0;fillColor=#d5e8d4;strokeColor=#82b366;" edge="1" parent="1" source="BQe-CCMixdXJj6wNmX5B-15" target="BQe-CCMixdXJj6wNmX5B-22">
          <mxGeometry relative="1" as="geometry">
            <Array as="points">
              <mxPoint x="550" y="310" />
              <mxPoint x="550" y="490" />
            </Array>
          </mxGeometry>
        </mxCell>
        <mxCell id="BQe-CCMixdXJj6wNmX5B-31" value="extends" style="edgeLabel;html=1;align=center;verticalAlign=middle;resizable=0;points=[];labelBackgroundColor=#CDA2BE;" vertex="1" connectable="0" parent="BQe-CCMixdXJj6wNmX5B-30">
          <mxGeometry x="-0.7621" y="-2" relative="1" as="geometry">
            <mxPoint x="-9" y="2" as="offset" />
          </mxGeometry>
        </mxCell>
        <mxCell id="BQe-CCMixdXJj6wNmX5B-15" value="abstract.factory.ts" style="rounded=1;whiteSpace=wrap;html=1;fillColor=#d5e8d4;strokeColor=#82b366;" vertex="1" parent="1">
          <mxGeometry x="647" y="290" width="180" height="40" as="geometry" />
        </mxCell>
        <mxCell id="BQe-CCMixdXJj6wNmX5B-16" value="methods and properties" style="swimlane;whiteSpace=wrap;html=1;fillColor=#f8cecc;strokeColor=#b85450;rounded=1;" vertex="1" parent="1">
          <mxGeometry x="710" y="350" width="270" height="220" as="geometry" />
        </mxCell>
        <mxCell id="BQe-CCMixdXJj6wNmX5B-17" value="protected abstract factoryName" style="rounded=1;whiteSpace=wrap;html=1;fillColor=#fff2cc;strokeColor=#d6b656;" vertex="1" parent="BQe-CCMixdXJj6wNmX5B-16">
          <mxGeometry x="10" y="40" width="250" height="40" as="geometry" />
        </mxCell>
        <mxCell id="BQe-CCMixdXJj6wNmX5B-18" value="protected abstract loggerService" style="rounded=1;whiteSpace=wrap;html=1;fillColor=#fff2cc;strokeColor=#d6b656;" vertex="1" parent="BQe-CCMixdXJj6wNmX5B-16">
          <mxGeometry x="10" y="100" width="250" height="40" as="geometry" />
        </mxCell>
        <mxCell id="BQe-CCMixdXJj6wNmX5B-24" value="abstract async init(): Promise&amp;lt;void&amp;gt;" style="rounded=1;whiteSpace=wrap;html=1;fillColor=#fff2cc;strokeColor=#d6b656;" vertex="1" parent="BQe-CCMixdXJj6wNmX5B-16">
          <mxGeometry x="10" y="160" width="250" height="40" as="geometry" />
        </mxCell>
        <mxCell id="BQe-CCMixdXJj6wNmX5B-19" style="edgeStyle=orthogonalEdgeStyle;rounded=1;orthogonalLoop=1;jettySize=auto;html=1;exitX=0;exitY=0.5;exitDx=0;exitDy=0;fillColor=#fff2cc;strokeColor=#d6b656;dashed=1;entryX=0.125;entryY=0.975;entryDx=0;entryDy=0;entryPerimeter=0;" edge="1" parent="1" source="BQe-CCMixdXJj6wNmX5B-17" target="BQe-CCMixdXJj6wNmX5B-15">
          <mxGeometry relative="1" as="geometry">
            <mxPoint x="670" y="340" as="targetPoint" />
            <Array as="points">
              <mxPoint x="670" y="410" />
              <mxPoint x="670" y="329" />
            </Array>
          </mxGeometry>
        </mxCell>
        <mxCell id="BQe-CCMixdXJj6wNmX5B-20" style="edgeStyle=orthogonalEdgeStyle;rounded=1;orthogonalLoop=1;jettySize=auto;html=1;exitX=0;exitY=0.5;exitDx=0;exitDy=0;fillColor=#fff2cc;strokeColor=#d6b656;dashed=1;" edge="1" parent="1" source="BQe-CCMixdXJj6wNmX5B-18" target="BQe-CCMixdXJj6wNmX5B-15">
          <mxGeometry relative="1" as="geometry">
            <mxPoint x="696" y="330" as="targetPoint" />
            <Array as="points">
              <mxPoint x="670" y="470" />
            </Array>
          </mxGeometry>
        </mxCell>
        <mxCell id="BQe-CCMixdXJj6wNmX5B-21" style="edgeStyle=orthogonalEdgeStyle;rounded=0;orthogonalLoop=1;jettySize=auto;html=1;" edge="1" parent="1" source="BQe-CCMixdXJj6wNmX5B-22">
          <mxGeometry relative="1" as="geometry">
            <mxPoint x="100.00000000000023" y="490" as="targetPoint" />
          </mxGeometry>
        </mxCell>
        <mxCell id="BQe-CCMixdXJj6wNmX5B-22" value="transport.factory.ts" style="rounded=1;whiteSpace=wrap;html=1;fillColor=#d5e8d4;strokeColor=#82b366;" vertex="1" parent="1">
          <mxGeometry x="330" y="470" width="180" height="40" as="geometry" />
        </mxCell>
        <mxCell id="BQe-CCMixdXJj6wNmX5B-23" value="bind&lt;br&gt;Symbol(&#39;TransportFactory&#39;)" style="edgeLabel;html=1;align=center;verticalAlign=middle;resizable=0;points=[];labelBackgroundColor=#CDA2BE;" vertex="1" connectable="0" parent="1">
          <mxGeometry x="219.99461538461526" y="490.0000000000001" as="geometry" />
        </mxCell>
        <mxCell id="BQe-CCMixdXJj6wNmX5B-25" style="edgeStyle=orthogonalEdgeStyle;rounded=1;orthogonalLoop=1;jettySize=auto;html=1;entryX=0.129;entryY=1.071;entryDx=0;entryDy=0;entryPerimeter=0;exitX=0;exitY=0.5;exitDx=0;exitDy=0;fillColor=#fff2cc;strokeColor=#d6b656;dashed=1;" edge="1" parent="1" source="BQe-CCMixdXJj6wNmX5B-24" target="BQe-CCMixdXJj6wNmX5B-15">
          <mxGeometry relative="1" as="geometry" />
        </mxCell>
        <mxCell id="BQe-CCMixdXJj6wNmX5B-26" style="edgeStyle=orthogonalEdgeStyle;rounded=0;orthogonalLoop=1;jettySize=auto;html=1;" edge="1" parent="1" source="BQe-CCMixdXJj6wNmX5B-27">
          <mxGeometry relative="1" as="geometry">
            <mxPoint x="100" y="584" as="targetPoint" />
            <Array as="points">
              <mxPoint x="215" y="584" />
              <mxPoint x="100" y="584" />
            </Array>
          </mxGeometry>
        </mxCell>
        <mxCell id="BQe-CCMixdXJj6wNmX5B-27" value="{{factory-name}}.factory.ts" style="rounded=1;whiteSpace=wrap;html=1;fillColor=#d5e8d4;strokeColor=#82b366;" vertex="1" parent="1">
          <mxGeometry x="330" y="564.5" width="180" height="40" as="geometry" />
        </mxCell>
        <mxCell id="BQe-CCMixdXJj6wNmX5B-28" value="bind&lt;br&gt;Symbol(&#39;{{FactoryName}}Factory&#39;)" style="edgeLabel;html=1;align=center;verticalAlign=middle;resizable=0;points=[];labelBackgroundColor=#CDA2BE;" vertex="1" connectable="0" parent="1">
          <mxGeometry x="219.99461538461526" y="584.5000000000001" as="geometry" />
        </mxCell>
        <mxCell id="BQe-CCMixdXJj6wNmX5B-32" style="edgeStyle=orthogonalEdgeStyle;rounded=1;orthogonalLoop=1;jettySize=auto;html=1;entryX=0.5;entryY=0;entryDx=0;entryDy=0;fillColor=#d5e8d4;strokeColor=#82b366;" edge="1" parent="1" target="BQe-CCMixdXJj6wNmX5B-36">
          <mxGeometry relative="1" as="geometry">
            <mxPoint x="100" y="640" as="sourcePoint" />
            <Array as="points">
              <mxPoint x="100" y="640" />
              <mxPoint x="420" y="640" />
            </Array>
          </mxGeometry>
        </mxCell>
        <mxCell id="BQe-CCMixdXJj6wNmX5B-33" value="inject&lt;br&gt;All factories" style="edgeLabel;html=1;align=center;verticalAlign=middle;resizable=0;points=[];labelBackgroundColor=#CDA2BE;" vertex="1" connectable="0" parent="BQe-CCMixdXJj6wNmX5B-32">
          <mxGeometry x="-0.1873" y="2" relative="1" as="geometry">
            <mxPoint x="-23" as="offset" />
          </mxGeometry>
        </mxCell>
        <mxCell id="BQe-CCMixdXJj6wNmX5B-34" style="edgeStyle=orthogonalEdgeStyle;rounded=1;orthogonalLoop=1;jettySize=auto;html=1;exitX=0.5;exitY=1;exitDx=0;exitDy=0;fillColor=#dae8fc;strokeColor=#6c8ebf;" edge="1" parent="1" source="BQe-CCMixdXJj6wNmX5B-36">
          <mxGeometry relative="1" as="geometry">
            <mxPoint x="100" y="740" as="targetPoint" />
            <Array as="points">
              <mxPoint x="420" y="740" />
              <mxPoint x="100" y="740" />
            </Array>
          </mxGeometry>
        </mxCell>
        <mxCell id="BQe-CCMixdXJj6wNmX5B-35" value="bind&lt;br&gt;Symbol(&#39;FactoryService&#39;)" style="edgeLabel;html=1;align=center;verticalAlign=middle;resizable=0;points=[];labelBackgroundColor=#CDA2BE;" vertex="1" connectable="0" parent="BQe-CCMixdXJj6wNmX5B-34">
          <mxGeometry x="0.3368" y="4" relative="1" as="geometry">
            <mxPoint x="4" y="-4" as="offset" />
          </mxGeometry>
        </mxCell>
        <mxCell id="BQe-CCMixdXJj6wNmX5B-36" value="factory.service.ts" style="rounded=1;whiteSpace=wrap;html=1;fillColor=#d5e8d4;strokeColor=#82b366;" vertex="1" parent="1">
          <mxGeometry x="330" y="670" width="180" height="40" as="geometry" />
        </mxCell>
      </root>
    </mxGraphModel>
  </diagram>
</mxfile>
